<svg viewBox="-105 0 500 500" xmlns="http://www.w3.org/2000/svg">
    <path
        d="M23.2669 81.9296L0.368217 38.6092L19.1816 28.6647C21.9046 27.2253 24.5277 26.4458 27.0509 26.3261C29.5741 26.2065 31.8507 26.7186 33.8806 27.8626C35.9105 29.0066 37.547 30.7544 38.79 33.1061L39.1826 33.8487C40.5565 36.448 41.0499 38.8792 40.6626 41.1425C40.2754 43.4058 39.3705 45.3885 37.9477 47.0907L38.5365 48.2047C40.2304 47.4149 41.8147 47.3164 43.2894 47.9093C44.7423 48.461 45.9267 49.6032 46.8426 51.336L54.3337 65.508L46.1648 69.826L39.2952 56.8299C38.7718 55.8397 38.0783 55.177 37.2149 54.8416C36.3927 54.4844 35.3833 54.6221 34.1869 55.2545L22.7998 61.2736L31.4359 77.6116L23.2669 81.9296ZM18.8743 53.8473L28.6523 48.6787C30.5914 47.6537 31.8247 46.342 32.3522 44.7435C32.8991 43.082 32.7146 41.3849 31.7987 39.652L31.4716 39.0332C30.5556 37.3004 29.2887 36.2018 27.6708 35.7373C26.0311 35.2317 24.2211 35.5022 22.2407 36.549L12.4627 41.7176L18.8743 53.8473ZM68.3782 60.9001C66.6184 61.5226 64.9202 61.4798 63.2837 60.7717C61.6757 60.0041 60.5448 58.6963 59.8912 56.8485C59.2375 55.0008 59.3023 53.2948 60.0855 51.7307C60.8972 50.1071 62.1829 48.984 63.9427 48.3615C65.7465 47.7234 67.4525 47.7882 69.0605 48.5559C70.653 49.2796 71.7761 50.5653 72.4298 52.4131C73.0834 54.2609 73.0264 55.9888 72.2587 57.5969C71.4755 59.161 70.182 60.262 68.3782 60.9001ZM79.1029 56.2624L82.3396 5.70137L98.1404 2.61153L120.185 48.2288L110.842 50.0559L106.162 39.9867L88.9877 43.3453L88.446 54.4354L79.1029 56.2624ZM89.4784 34.5476L102.394 32.0219L91.9733 9.73755L90.7368 9.97936L89.4784 34.5476ZM131.8 48.441C129.936 48.538 128.319 48.0146 126.952 46.8708C125.628 45.678 124.915 44.1029 124.813 42.1455C124.711 40.1882 125.258 38.5709 126.453 37.2938C127.693 35.9675 129.244 35.2559 131.108 35.1589C133.019 35.0595 134.636 35.6062 135.96 36.799C137.282 37.9452 137.993 39.497 138.095 41.4543C138.197 43.4117 137.651 45.0523 136.459 46.376C135.263 47.6532 133.71 48.3415 131.8 48.441ZM162.349 48.2962L170.464 -0.0272648L191.45 3.49675C194.487 4.0068 197.045 4.98042 199.122 6.41761C201.199 7.8548 202.697 9.6442 203.615 11.7858C204.533 13.9274 204.772 16.3098 204.331 18.9331L204.192 19.7615C203.705 22.6609 202.621 24.8921 200.939 26.4552C199.257 28.0182 197.334 29.0439 195.17 29.5322L194.961 30.7748C196.787 31.176 198.105 32.0599 198.917 33.4265C199.736 34.7471 199.983 36.3738 199.659 38.3068L197.004 54.1154L187.892 52.5853L190.326 38.0882C190.511 36.9837 190.363 36.036 189.881 35.2452C189.444 34.4622 188.559 33.9586 187.224 33.7345L174.522 31.6015L171.462 49.8263L162.349 48.2962ZM175.913 23.3175L186.82 25.149C188.983 25.5123 190.76 25.2191 192.15 24.2694C193.593 23.2815 194.477 21.8211 194.802 19.8881L194.918 19.1978C195.242 17.2649 194.903 15.6227 193.899 14.2712C192.904 12.8737 191.301 11.9894 189.092 11.6185L178.185 9.78692L175.913 23.3175ZM215.701 61.2074C213.382 60.3485 211.449 59.1848 209.903 57.7165C208.372 56.2043 207.344 54.4798 206.817 52.543C206.35 50.5786 206.53 48.4804 207.357 46.2486C208.183 44.0167 209.397 42.3513 210.998 41.2523C212.66 40.1258 214.569 39.539 216.726 39.4919C218.944 39.4173 221.277 39.8337 223.728 40.7413L232.656 44.0474L233.336 42.2094C233.904 40.6777 233.884 39.2522 233.278 37.9329C232.688 36.5698 231.343 35.4993 229.242 34.7214C227.185 33.9597 225.475 33.8739 224.112 34.4639C222.765 35.0102 221.663 35.9705 220.806 37.345L214.139 31.965C215.28 30.4965 216.671 29.2947 218.311 28.3594C220.011 27.3966 221.978 26.856 224.211 26.7376C226.505 26.5916 229.052 27.0372 231.853 28.0744C236.141 29.6627 239.136 31.9908 240.836 35.0589C242.537 38.1271 242.633 41.6961 241.126 45.7659L236.629 57.91C236.143 59.2228 236.512 60.1061 237.737 60.5599L240.363 61.5323L237.835 68.3592L232.321 66.3172C230.702 65.7176 229.513 64.8294 228.754 63.6527C227.996 62.4761 227.86 61.2313 228.346 59.9184L228.37 59.8528L227.123 59.3909C226.753 59.8512 226.1 60.4056 225.163 61.0539C224.243 61.6585 223.004 62.0459 221.449 62.2162C219.893 62.3864 217.977 62.0502 215.701 61.2074ZM219.625 55.0466C221.944 55.9056 224.061 55.9679 225.975 55.2336C227.949 54.4718 229.333 53.0187 230.127 50.8743L230.371 50.2179L222.034 47.1306C220.502 46.5633 219.177 46.4459 218.059 46.7782C216.941 47.1105 216.163 47.8674 215.725 49.049C215.287 50.2306 215.39 51.3635 216.034 52.4478C216.677 53.5321 217.874 54.3984 219.625 55.0466ZM238.579 85.0169L242.541 78.4143L258.747 88.1388C259.868 88.8111 260.788 88.547 261.509 87.3465L266.011 79.8436L264.93 79.1953C264.202 79.6835 263.294 80.0636 262.205 80.3357C261.117 80.6078 259.86 80.6157 258.436 80.3596C257.011 80.1034 255.398 79.4351 253.598 78.3546C251.277 76.962 249.548 75.2172 248.412 73.1203C247.339 71.0074 246.887 68.7225 247.055 66.2655C247.224 63.8085 248.04 61.3595 249.505 58.9185L260.166 41.1516L267.728 45.6897L257.428 62.8564C256.083 65.0973 255.615 67.1021 256.023 68.8708C256.471 70.6636 257.716 72.1722 259.756 73.3968C262.077 74.7894 264.334 75.1096 266.527 74.3574C268.744 73.5651 270.681 71.7884 272.338 69.0274L281.414 53.9015L288.977 58.4396L267.943 93.4932C266.719 95.534 265.146 96.7945 263.225 97.2746C261.28 97.7948 259.307 97.4546 257.307 96.254L238.579 85.0169Z" />
</svg>
