<svg viewBox="0 0 500 500" xmlns="http://www.w3.org/2000/svg">
    <path
        d="M46.9885 201.579L0.507568 186.07L7.24277 165.884C8.2176 162.962 9.57597 160.587 11.3179 158.757C13.0598 156.928 15.0597 155.726 17.3178 155.151C19.5758 154.576 21.9664 154.71 24.4897 155.552L25.2865 155.817C28.0754 156.748 30.1115 158.165 31.3948 160.069C32.6781 161.973 33.3932 164.032 33.5402 166.246L34.7354 166.645C35.4147 164.904 36.4924 163.738 37.9683 163.148C39.3999 162.543 41.0453 162.551 42.9046 163.172L58.1105 168.245L55.186 177.01L41.2417 172.358C40.1793 172.003 39.2201 172.003 38.364 172.357C37.5228 172.666 36.888 173.463 36.4596 174.747L32.3831 186.965L49.913 192.814L46.9885 201.579ZM24.4149 184.306L27.9154 173.815C28.6096 171.734 28.5954 169.934 27.8727 168.414C27.1206 166.834 25.8149 165.734 23.9556 165.114L23.2916 164.893C21.4324 164.272 19.7574 164.353 18.2667 165.135C16.7317 165.902 15.6097 167.347 14.9008 169.472L11.4002 179.964L24.4149 184.306Z"
    />
    <path
        d="M65.0921 155.218C64.2479 156.882 62.9893 158.023 61.3162 158.64C59.6226 159.194 57.9017 159.028 56.1536 158.141C54.4055 157.255 53.2752 155.976 52.7629 154.303C52.23 152.568 52.3856 150.868 53.2298 149.203C54.095 147.496 55.3745 146.366 57.0681 145.812C58.72 145.237 60.4201 145.393 62.1682 146.279C63.9164 147.165 65.0674 148.455 65.6214 150.149C66.1338 151.822 65.9573 153.511 65.0921 155.218Z"
    />
    <path
        d="M69.6528 144.459L37.0441 105.683L46.327 92.5287L93.7884 110.258L88.2994 118.036L77.9579 113.994L67.8678 128.292L75.1418 136.681L69.6528 144.459ZM62.1414 121.595L69.7292 110.843L46.7958 101.941L46.0693 102.971L62.1414 121.595Z"
    />
    <path
        d="M102.327 102.38C101.048 103.739 99.5181 104.478 97.739 104.597C95.9579 104.651 94.3539 104.006 92.9269 102.662C91.5 101.318 90.7768 99.772 90.7572 98.0229C90.7357 96.2078 91.3648 94.6207 92.6445 93.2618C93.9562 91.8688 95.5026 91.1456 97.2837 91.0921C99.0308 91.0065 100.618 91.6356 102.045 92.9793C103.472 94.323 104.212 95.8854 104.265 97.6665C104.285 99.4156 103.639 100.987 102.327 102.38Z"
    />
    <path
        d="M124.302 81.1581L96.792 40.6094L114.402 28.6622C116.95 26.933 119.472 25.8706 121.967 25.475C124.462 25.0794 126.781 25.3388 128.924 26.2534C131.067 27.1679 132.885 28.7258 134.379 30.927L134.85 31.6221C136.501 34.055 137.258 36.4175 137.121 38.7096C136.984 41.0017 136.302 43.0718 135.075 44.9197L135.782 45.9624C137.379 44.9916 138.943 44.72 140.474 45.1477C141.979 45.5367 143.281 46.5422 144.382 48.1642L153.381 61.4294L145.735 66.617L137.482 54.4524C136.853 53.5256 136.091 52.9428 135.196 52.7042C134.34 52.4393 133.352 52.6868 132.232 53.4466L121.573 60.6778L131.948 75.9704L124.302 81.1581ZM116.857 53.7266L126.01 47.5172C127.825 46.2858 128.907 44.8468 129.256 43.2001C129.617 41.4886 129.248 39.8219 128.147 38.2L127.754 37.6207C126.654 35.9988 125.274 35.0457 123.615 34.7614C121.93 34.4386 120.16 34.906 118.307 36.1636L109.154 42.373L116.857 53.7266Z"
    />
    <path
        d="M171.798 53.6314C169.528 54.614 167.327 55.1092 165.195 55.117C163.044 55.082 161.108 54.5468 159.389 53.5113C157.694 52.4146 156.373 50.7741 155.428 48.59C154.482 46.4058 154.208 44.3633 154.606 42.4622C155.027 40.4998 156.001 38.756 157.528 37.2308C159.078 35.6442 161.053 34.3318 163.451 33.2936L172.188 29.5115L171.409 27.7128C170.76 26.2139 169.761 25.1973 168.411 24.663C167.042 24.0859 165.33 24.2422 163.274 25.1321C161.261 26.0035 159.966 27.1235 159.389 28.492C158.794 29.8178 158.661 31.2736 158.992 32.8595L150.455 33.58C150.265 31.7302 150.439 29.9004 150.978 28.0908C151.541 26.2198 152.588 24.4696 154.12 22.8401C155.677 21.1493 157.825 19.7107 160.566 18.5241C164.763 16.7073 168.536 16.3197 171.886 17.3614C175.235 18.4031 177.772 20.9154 179.496 24.8982L184.641 36.7824C185.197 38.0672 186.075 38.45 187.274 37.9309L189.844 36.8186L192.736 43.4994L187.34 45.8354C185.755 46.5214 184.282 46.7014 182.921 46.3755C181.559 46.0495 180.6 45.2442 180.044 43.9594L180.016 43.8952L178.796 44.4235C178.847 45.0116 178.758 45.8637 178.529 46.9798C178.282 48.053 177.655 49.1889 176.648 50.3875C175.642 51.5861 174.025 52.6674 171.798 53.6314ZM170.375 46.4673C172.644 45.4847 174.217 44.0665 175.093 42.2127C175.993 40.2976 175.988 38.2908 175.08 36.1923L174.802 35.55L166.643 39.0817C165.144 39.7306 164.106 40.5616 163.527 41.5748C162.949 42.588 162.91 43.6727 163.411 44.829C163.911 45.9853 164.769 46.7329 165.983 47.0716C167.198 47.4103 168.662 47.2088 170.375 46.4673Z"
    />
    <path
        d="M204.785 55.0254L203.086 47.5152L221.52 43.3451C222.794 43.0568 223.277 42.2299 222.968 40.8644L221.038 32.33L219.809 32.608C219.62 33.4642 219.226 34.3667 218.627 35.3155C218.028 36.2643 217.126 37.1384 215.919 37.9376C214.712 38.7369 213.085 39.3683 211.036 39.8316C208.396 40.4288 205.941 40.3622 203.671 39.6318C201.436 38.8457 199.53 37.5065 197.953 35.6143C196.377 33.7222 195.275 31.3878 194.647 28.6113L190.075 8.40198L198.678 6.4559L203.095 25.9825C203.672 28.5314 204.718 30.3041 206.236 31.3006C207.799 32.2867 209.741 32.5172 212.062 31.9921C214.702 31.3949 216.554 30.0667 217.62 28.0076C218.675 25.903 218.847 23.2803 218.136 20.1397L214.244 2.93444L222.847 0.988373L231.867 40.8609C232.392 43.1822 232.126 45.1801 231.07 46.8545C230.023 48.5744 228.362 49.6918 226.086 50.2066L204.785 55.0254Z"
    />
</svg>
